<?xml version="1.0" encoding="UTF-8" standalone="no"?><!DOCTYPE svg PUBLIC "-//W3C//DTD SVG 1.1//EN" "http://www.w3.org/Graphics/SVG/1.1/DTD/svg11.dtd"><svg width="100%" height="100%" viewBox="0 0 146 56" version="1.1" xmlns="http://www.w3.org/2000/svg" xmlns:xlink="http://www.w3.org/1999/xlink" xml:space="preserve" style="fill-rule:evenodd;clip-rule:evenodd;stroke-linejoin:round;stroke-miterlimit:1.41421;"><g><g><rect x="0" y="10.649" width="6.39" height="14.909" style="fill:#424242;fill-rule:nonzero;"/><path d="M6.39,3.195c0,1.764 -1.43,3.195 -3.195,3.195c-1.765,0 -3.195,-1.431 -3.195,-3.195c0,-1.764 1.43,-3.195 3.195,-3.195c1.765,0 3.195,1.431 3.195,3.195" style="fill:#424242;fill-rule:nonzero;"/><path d="M42.597,3.195c0,1.764 -1.43,3.195 -3.195,3.195c-1.765,0 -3.194,-1.431 -3.194,-3.195c0,-1.764 1.429,-3.195 3.194,-3.195c1.765,0 3.195,1.431 3.195,3.195" style="fill:#424242;fill-rule:nonzero;"/><path d="M19.168,19.168l0,-17.038l-6.389,0l0,23.428l12.779,0l0,-6.39l-6.39,0Z" style="fill:#424242;fill-rule:nonzero;"/><path d="M46.856,2.087l0,1.093c0,4.117 -3.337,7.454 -7.454,7.454c-4.116,0 -7.454,-3.337 -7.454,-7.454l0,-0.001l0,-1.092l-6.39,0l0,1.108l0.001,0c0.009,7.638 6.203,13.827 13.844,13.827c7.639,0 13.832,-6.189 13.841,-13.827l0.001,0l0,-1.108l-6.389,0Z" style="fill:#424242;fill-rule:nonzero;"/><rect x="0" y="40.464" width="6.39" height="14.911" style="fill:#424242;fill-rule:nonzero;"/><path d="M6.39,33.012c0,1.765 -1.43,3.195 -3.195,3.195c-1.765,0 -3.195,-1.43 -3.195,-3.195c0,-1.764 1.43,-3.194 3.195,-3.194c1.765,0 3.195,1.43 3.195,3.194" style="fill:#424242;fill-rule:nonzero;"/><path d="M42.597,33.012c0,1.765 -1.43,3.195 -3.195,3.195c-1.765,0 -3.194,-1.43 -3.194,-3.195c0,-1.764 1.429,-3.194 3.194,-3.194c1.765,0 3.195,1.43 3.195,3.194" style="fill:#424242;fill-rule:nonzero;"/><path d="M19.168,48.986l0,-17.038l-6.389,0l0,23.428l12.779,0l0,-6.39l-6.39,0Z" style="fill:#424242;fill-rule:nonzero;"/><path d="M46.856,31.905l0,1.093c0,4.116 -3.337,7.453 -7.454,7.453c-4.116,0 -7.454,-3.337 -7.454,-7.453l0,-0.001l0,-1.092l-6.39,0l0,1.108l0.001,0c0.009,7.638 6.203,13.826 13.844,13.826c7.639,0 13.832,-6.188 13.841,-13.826l0.001,0l0,-1.108l-6.389,0Z" style="fill:#424242;fill-rule:nonzero;"/></g><g><path d="M97.066,22.105l0,-2.309c-0.475,-0.52 -0.994,-0.689 -1.53,-0.689c-1.009,0 -1.758,0.827 -1.758,1.852c0,1.024 0.749,1.835 1.758,1.835c0.536,0 1.055,-0.154 1.53,-0.689m2.477,2.569l-2.477,0l0,-0.412c-0.551,0.351 -1.209,0.565 -2.034,0.565c-2.004,0 -3.686,-1.667 -3.686,-3.868c0,-2.218 1.682,-3.869 3.686,-3.869c0.825,0 1.483,0.213 2.034,0.565l0,-0.397l2.477,0l0,7.416Z" style="fill:#424242;fill-rule:nonzero;"/><path d="M106.242,19.49c-1.208,0.046 -1.973,0.368 -2.553,0.933l0,4.252l-2.495,0l0,-7.418l2.495,0l0,0.796c0.656,-0.566 1.451,-0.918 2.553,-0.918l0,2.355Z" style="fill:#424242;fill-rule:nonzero;"/><path d="M113.786,24.537c-0.963,0.306 -1.514,0.367 -2.248,0.367c-1.79,0 -2.983,-1.315 -2.983,-3.319l0,-2.202l-1.452,0l0,-2.125l1.452,0l0,-2.524l2.479,0l0,2.524l2.522,0l0,2.125l-2.522,0l0,2.126c0,0.749 0.427,1.116 1.162,1.116c0.351,0 0.764,-0.076 1.315,-0.183l0.275,2.095Z" style="fill:#424242;fill-rule:nonzero;"/><path d="M97.078,34.882l0,-2.309c-0.475,-0.52 -0.994,-0.688 -1.53,-0.688c-1.01,0 -1.759,0.826 -1.759,1.85c0,1.025 0.749,1.835 1.759,1.835c0.536,0 1.055,-0.153 1.53,-0.688m2.477,2.569l-2.477,0l0,-0.413c-0.551,0.352 -1.209,0.566 -2.034,0.566c-2.004,0 -3.686,-1.666 -3.686,-3.869c0,-2.218 1.682,-3.869 3.686,-3.869c0.825,0 1.483,0.214 2.034,0.566l0,-0.398l2.477,0l0,7.417Z" style="fill:#424242;fill-rule:nonzero;"/><path d="M112.828,33.016l3.013,0c-0.138,-0.81 -0.673,-1.238 -1.469,-1.238c-0.841,0 -1.362,0.489 -1.544,1.238m5.291,1.454l-5.276,0c0.198,0.672 0.718,1.192 1.666,1.192c0.521,0 0.918,-0.199 1.133,-0.535l2.461,0c-0.367,1.529 -1.789,2.492 -3.624,2.492c-2.431,0 -4.052,-1.62 -4.052,-3.884c0,-2.248 1.574,-3.869 3.96,-3.869c2.141,0 3.779,1.483 3.779,3.716c0,0.291 0,0.597 -0.047,0.888" style="fill:#424242;fill-rule:nonzero;"/><path d="M127.262,33.215l0,4.236l-2.477,0l0,-3.838c0,-1.055 -0.536,-1.56 -1.362,-1.56c-0.442,0 -0.916,0.245 -1.344,0.734l0,4.664l-2.494,0l0,-7.417l2.494,0l0,0.489c0.595,-0.458 1.238,-0.718 2.033,-0.718c1.866,0 3.15,1.3 3.15,3.41" style="fill:#424242;fill-rule:nonzero;"/><path d="M134.065,34.408l2.34,0c-0.182,1.911 -1.759,3.211 -3.807,3.211c-2.325,0 -4.053,-1.62 -4.053,-3.884c0,-2.248 1.728,-3.869 4.053,-3.869c2.048,0 3.625,1.3 3.807,3.211l-2.34,0c-0.121,-0.673 -0.703,-1.116 -1.453,-1.116c-1.07,0 -1.697,0.765 -1.697,1.774c0,1.01 0.627,1.79 1.697,1.79c0.75,0 1.332,-0.444 1.453,-1.117" style="fill:#424242;fill-rule:nonzero;"/><path d="M106.483,34.531c-0.459,0.52 -0.993,0.688 -1.529,0.688c-1.01,0 -1.759,-0.827 -1.759,-1.637c0,-1.07 0.749,-1.789 1.759,-1.789c0.536,0 1.07,0.168 1.529,0.688l0,2.05Zm0,-4.497l0,0.291c-0.55,-0.336 -1.208,-0.551 -2.019,-0.551c-2.018,0 -3.686,1.545 -3.686,3.808c0,2.003 1.668,3.61 3.686,3.61c0.811,0 1.469,-0.199 2.019,-0.521l0,0.347c0,1.009 -0.642,1.529 -1.499,1.529c-0.672,0 -1.125,-0.234 -1.365,-0.628l-2.561,0c0.351,1.649 1.878,2.722 3.941,2.722c2.326,0 3.961,-1.345 3.961,-3.67l0,-6.937l-2.477,0Z" style="fill:#424242;fill-rule:nonzero;"/><path d="M143.164,29.973l0,4.496c-0.459,0.52 -0.994,0.689 -1.53,0.689c-1.01,0 -1.759,-0.826 -1.759,-1.637c0,-0.004 0.001,-0.007 0.001,-0.01l-0.001,0l0,-3.538l-2.416,0l0,3.548c0,2.003 1.668,3.61 3.686,3.61c0.811,0 1.468,-0.199 2.019,-0.521l0,0.407c0,1.009 -0.642,1.529 -1.5,1.529c-0.654,0 -1.096,-0.225 -1.34,-0.599l-2.58,0c0.36,1.632 1.884,2.695 3.936,2.695c2.325,0 3.961,-1.347 3.961,-3.671l0,-6.998l-2.477,0Z" style="fill:#424242;fill-rule:nonzero;"/></g></g></svg>