<?xml version="1.0" encoding="UTF-8" standalone="no"?><!DOCTYPE svg PUBLIC "-//W3C//DTD SVG 1.1//EN" "http://www.w3.org/Graphics/SVG/1.1/DTD/svg11.dtd"><svg width="100%" height="100%" viewBox="0 0 174 289" version="1.1" xmlns="http://www.w3.org/2000/svg" xmlns:xlink="http://www.w3.org/1999/xlink" xml:space="preserve" style="fill-rule:evenodd;clip-rule:evenodd;stroke-miterlimit:1.41421;"><rect x="4.704" y="34.882" width="20.151" height="47.021" style="fill:none;stroke:#000;stroke-width:1.5px;"/><path d="M27.152,236.411l-7.81,0l0,-1.304c-1.74,1.109 -3.813,1.785 -6.415,1.785c-6.32,0 -11.628,-5.256 -11.628,-12.202c0,-6.995 5.308,-12.201 11.628,-12.201c2.602,0 4.675,0.673 6.415,1.782l0,-1.253l7.81,0l0,23.393Zm-7.81,-8.105l0,-7.284c-1.498,-1.637 -3.136,-2.168 -4.825,-2.168c-3.185,0 -5.547,2.604 -5.547,5.836c0,3.233 2.362,5.787 5.547,5.787c1.689,0 3.327,-0.481 4.825,-2.171Z" style="fill:none;stroke:#000;stroke-width:1.5px;"/><path d="M48.277,220.06c-3.81,0.145 -6.218,1.159 -8.052,2.943l0,13.408l-7.865,0l0,-23.393l7.865,0l0,2.509c2.071,-1.784 4.581,-2.896 8.052,-2.896l0,7.429Z" style="fill:none;stroke:#000;stroke-width:1.5px;"/><path d="M72.073,235.977c-3.04,0.964 -4.775,1.156 -7.092,1.156c-5.645,0 -9.405,-4.149 -9.405,-10.466l0,-6.943l-4.581,0l0,-6.706l4.581,0l0,-7.958l7.815,0l0,7.958l7.957,0l0,6.706l-7.957,0l0,6.701c0,2.365 1.348,3.521 3.666,3.521c1.106,0 2.41,-0.241 4.147,-0.576l0.869,6.607Z" style="fill:none;stroke:#000;stroke-width:1.5px;"/><path d="M27.187,276.707l-7.81,0l0,-1.304c-1.737,1.109 -3.813,1.785 -6.412,1.785c-6.322,0 -11.628,-5.256 -11.628,-12.202c0,-6.995 5.306,-12.203 11.628,-12.203c2.599,0 4.675,0.675 6.412,1.784l0,-1.254l7.81,0l0,23.394Zm-7.81,-8.105l0,-7.282c-1.498,-1.639 -3.135,-2.17 -4.825,-2.17c-3.182,0 -5.545,2.604 -5.545,5.836c0,3.232 2.363,5.787 5.545,5.787c1.69,0 3.327,-0.483 4.825,-2.171Z" style="fill:none;stroke:#000;stroke-width:1.5px;"/><path d="M85.737,267.301l-16.64,0c0.626,2.121 2.265,3.761 5.256,3.761c1.642,0 2.893,-0.626 3.571,-1.687l7.765,0c-1.161,4.824 -5.644,7.862 -11.433,7.862c-7.666,0 -12.78,-5.113 -12.78,-12.251c0,-7.09 4.967,-12.203 12.491,-12.203c6.751,0 11.917,4.68 11.917,11.72c0,0.917 0,1.881 -0.147,2.798Zm-16.687,-4.583l9.502,0c-0.436,-2.554 -2.123,-3.905 -4.633,-3.905c-2.651,0 -4.294,1.543 -4.869,3.905Z" style="fill:none;stroke:#000;stroke-width:1.5px;"/><path d="M114.573,263.346l0,13.361l-7.813,0l0,-12.107c0,-3.327 -1.689,-4.919 -4.294,-4.919c-1.395,0 -2.891,0.772 -4.241,2.315l0,14.711l-7.865,0l0,-23.394l7.865,0l0,1.543c1.879,-1.448 3.905,-2.265 6.414,-2.265c5.884,0 9.934,4.099 9.934,10.755Z" style="fill:none;stroke:#000;stroke-width:1.5px;"/><path d="M136.03,267.107l7.379,0c-0.576,6.028 -5.547,10.13 -12.007,10.13c-7.332,0 -12.782,-5.113 -12.782,-12.251c0,-7.09 5.45,-12.203 12.782,-12.203c6.46,0 11.431,4.099 12.007,10.13l-7.379,0c-0.386,-2.123 -2.218,-3.524 -4.583,-3.524c-3.377,0 -5.355,2.415 -5.355,5.597c0,3.183 1.978,5.642 5.355,5.642c2.365,0 4.197,-1.398 4.583,-3.521Z" style="fill:none;stroke:#000;stroke-width:1.5px;"/><path d="M24.856,11.375c0,5.564 -4.51,10.073 -10.076,10.073c-5.564,0 -10.076,-4.509 -10.076,-10.073c0,-5.567 4.512,-10.076 10.076,-10.076c5.566,0 10.076,4.509 10.076,10.076Z" style="fill:none;stroke:#000;stroke-width:1.5px;"/><path d="M139.047,11.375c0,5.564 -4.51,10.073 -10.076,10.073c-5.566,0 -10.076,-4.509 -10.076,-10.073c0,-5.567 4.51,-10.076 10.076,-10.076c5.566,0 10.076,4.509 10.076,10.076Z" style="fill:none;stroke:#000;stroke-width:1.5px;"/><path d="M65.159,61.751l0,-53.736l-20.152,0l0,73.888l40.303,0l0,-20.152l-20.151,0Z" style="fill:none;stroke:#000;stroke-width:1.5px;"/><path d="M152.478,7.88l0,3.447c0,12.981 -10.524,23.507 -23.507,23.507c-12.981,0 -23.509,-10.526 -23.509,-23.507l0,-0.002l0,-3.445l-20.152,0l0,3.495l0.003,0c0.028,24.087 19.563,43.606 43.66,43.606c24.092,0 43.623,-19.519 43.654,-43.606l0.002,0l0,-3.495l-20.151,0Z" style="fill:none;stroke:#000;stroke-width:1.5px;"/><rect x="4.704" y="128.914" width="20.151" height="47.028" style="fill:none;stroke:#000;stroke-width:1.5px;"/><path d="M24.856,105.412c0,5.564 -4.51,10.076 -10.076,10.076c-5.564,0 -10.076,-4.512 -10.076,-10.076c0,-5.564 4.512,-10.076 10.076,-10.076c5.566,0 10.076,4.512 10.076,10.076Z" style="fill:none;stroke:#000;stroke-width:1.5px;"/><path d="M139.047,105.412c0,5.564 -4.51,10.076 -10.076,10.076c-5.566,0 -10.076,-4.512 -10.076,-10.076c0,-5.564 4.51,-10.076 10.076,-10.076c5.566,0 10.076,4.512 10.076,10.076Z" style="fill:none;stroke:#000;stroke-width:1.5px;"/><path d="M65.159,155.791l0,-53.737l-20.152,0l0,73.888l40.303,0l0,-20.151l-20.151,0Z" style="fill:none;stroke:#000;stroke-width:1.5px;"/><path d="M152.478,101.919l0,3.445c0,12.984 -10.524,23.51 -23.507,23.51c-12.981,0 -23.509,-10.526 -23.509,-23.51l0,-3.445l-20.152,0l0,3.493l0.003,0c0.028,24.09 19.563,43.608 43.66,43.608c24.092,0 43.623,-19.518 43.654,-43.608l0.002,0l0,-3.493l-20.151,0Z" style="fill:none;stroke:#000;stroke-width:1.5px;"/><path d="M49.04,253.313l0,0.917c-1.737,-1.061 -3.812,-1.737 -6.367,-1.737c-6.365,0 -11.625,4.872 -11.625,12.01c0,6.317 5.26,11.384 11.625,11.384c2.555,0 4.63,-0.628 6.367,-1.64l0,1.09c0,3.182 -2.028,4.822 -4.727,4.822c-2.121,0 -3.552,-0.737 -4.306,-1.976l-8.076,0c1.107,5.196 5.922,8.585 12.429,8.585c7.334,0 12.493,-4.244 12.493,-11.578l0,-21.877l-7.813,0Zm0,14.18c-1.45,1.64 -3.135,2.173 -4.822,2.173c-3.187,0 -5.547,-2.606 -5.547,-5.163c0,-3.377 2.36,-5.642 5.547,-5.642c1.687,0 3.372,0.528 4.822,2.17l0,6.462Z" style="fill:none;stroke:#000;stroke-width:1.5px;"/><path d="M164.724,253.121l0,14.18c-1.448,1.64 -3.135,2.173 -4.824,2.173c-3.185,0 -5.548,-2.606 -5.548,-5.163c0,-0.012 0.003,-0.021 0.003,-0.033l-0.003,0l0,-11.157l-7.621,0l0,11.19c0,6.317 5.261,11.384 11.628,11.384c2.555,0 4.628,-0.628 6.365,-1.642l0,1.284c0,3.182 -2.026,4.822 -4.73,4.822c-2.064,0 -3.457,-0.708 -4.227,-1.891l-8.138,0c1.138,5.149 5.944,8.5 12.415,8.5c7.332,0 12.493,-4.246 12.493,-11.578l0,-22.069l-7.813,0Z" style="fill:none;stroke:#000;stroke-width:1.5px;"/></svg>