<?xml version="1.0" encoding="UTF-8" standalone="no"?><!DOCTYPE svg PUBLIC "-//W3C//DTD SVG 1.1//EN" "http://www.w3.org/Graphics/SVG/1.1/DTD/svg11.dtd"><svg width="100%" height="100%" viewBox="0 0 77 127" version="1.1" xmlns="http://www.w3.org/2000/svg" xmlns:xlink="http://www.w3.org/1999/xlink" xml:space="preserve" style="fill-rule:evenodd;clip-rule:evenodd;stroke-linejoin:round;stroke-miterlimit:1.41421;"><g><rect x="1.514" y="14.936" width="8.962" height="20.912" style="fill:#1e1c1a;"/><path d="M8.023,100.959l0,-3.239c-0.666,-0.73 -1.394,-0.966 -2.146,-0.966c-1.416,0 -2.467,1.16 -2.467,2.597c0,1.436 1.051,2.574 2.467,2.574c0.752,0 1.48,-0.215 2.146,-0.966m3.474,3.603l-3.474,0l0,-0.578c-0.772,0.493 -1.696,0.793 -2.853,0.793c-2.81,0 -5.17,-2.338 -5.17,-5.426c0,-3.111 2.36,-5.426 5.17,-5.426c1.157,0 2.081,0.299 2.853,0.792l0,-0.557l3.474,0l0,10.402Z" style="fill:#1e1c1a;"/><path d="M20.893,97.291c-1.695,0.065 -2.767,0.516 -3.581,1.309l0,5.963l-3.499,0l0,-10.404l3.499,0l0,1.116c0.921,-0.793 2.036,-1.288 3.581,-1.288l0,3.304Z" style="fill:#1e1c1a;"/><path d="M31.475,104.37c-1.351,0.429 -2.124,0.514 -3.154,0.514c-2.51,0 -4.183,-1.844 -4.183,-4.655l0,-3.088l-2.037,0l0,-2.981l2.037,0l0,-3.54l3.476,0l0,3.54l3.538,0l0,2.981l-3.538,0l0,2.982c0,1.051 0.599,1.566 1.631,1.566c0.492,0 1.07,-0.108 1.844,-0.257l0.386,2.938Z" style="fill:#1e1c1a;"/><path d="M8.04,118.88l0,-3.238c-0.666,-0.73 -1.395,-0.966 -2.146,-0.966c-1.416,0 -2.467,1.158 -2.467,2.596c0,1.436 1.051,2.573 2.467,2.573c0.751,0 1.48,-0.215 2.146,-0.965m3.473,3.603l-3.473,0l0,-0.578c-0.773,0.493 -1.696,0.793 -2.853,0.793c-2.811,0 -5.17,-2.337 -5.17,-5.426c0,-3.111 2.359,-5.428 5.17,-5.428c1.157,0 2.08,0.301 2.853,0.794l0,-0.557l3.473,0l0,10.402Z" style="fill:#1e1c1a;"/><path d="M30.131,116.263l4.226,0c-0.194,-1.137 -0.945,-1.736 -2.061,-1.736c-1.179,0 -1.909,0.686 -2.165,1.736m7.421,2.038l-7.4,0c0.278,0.944 1.007,1.673 2.337,1.673c0.73,0 1.287,-0.279 1.588,-0.75l3.453,0c-0.516,2.144 -2.51,3.495 -5.084,3.495c-3.409,0 -5.684,-2.273 -5.684,-5.447c0,-3.154 2.209,-5.428 5.555,-5.428c3.003,0 5.3,2.081 5.3,5.213c0,0.408 0,0.837 -0.065,1.244" style="fill:#1e1c1a;"/><path d="M50.376,116.542l0,5.942l-3.474,0l0,-5.384c0,-1.48 -0.752,-2.188 -1.91,-2.188c-0.621,0 -1.286,0.344 -1.886,1.03l0,6.542l-3.498,0l0,-10.404l3.498,0l0,0.686c0.835,-0.643 1.736,-1.007 2.852,-1.007c2.617,0 4.418,1.823 4.418,4.783" style="fill:#1e1c1a;"/><path d="M59.919,118.215l3.281,0c-0.256,2.681 -2.467,4.504 -5.34,4.504c-3.26,0 -5.684,-2.273 -5.684,-5.448c0,-3.153 2.424,-5.426 5.684,-5.426c2.873,0 5.084,1.823 5.34,4.504l-3.281,0c-0.171,-0.944 -0.987,-1.566 -2.039,-1.566c-1.5,0 -2.38,1.073 -2.38,2.488c0,1.416 0.88,2.51 2.38,2.51c1.052,0 1.868,-0.622 2.039,-1.566" style="fill:#1e1c1a;"/><path d="M10.476,4.481c0,2.474 -2.006,4.481 -4.481,4.481c-2.476,0 -4.481,-2.007 -4.481,-4.481c0,-2.474 2.005,-4.481 4.481,-4.481c2.475,0 4.481,2.007 4.481,4.481" style="fill:#1e1c1a;"/><path d="M61.261,4.481c0,2.474 -2.006,4.481 -4.481,4.481c-2.476,0 -4.481,-2.007 -4.481,-4.481c0,-2.474 2.005,-4.481 4.481,-4.481c2.475,0 4.481,2.007 4.481,4.481" style="fill:#1e1c1a;"/><path d="M28.399,26.886l0,-23.899l-8.962,0l0,32.861l17.924,0l0,-8.962l-8.962,0Z" style="fill:#1e1c1a;"/><path d="M67.234,2.927l0,1.533c0,5.774 -4.68,10.455 -10.454,10.455c-5.774,0 -10.456,-4.681 -10.456,-10.455l0,-0.001l0,-1.532l-8.962,0l0,1.554l0.001,0c0.013,10.714 8.701,19.394 19.418,19.394c10.714,0 19.4,-8.68 19.414,-19.394l0.001,0l0,-1.554l-8.962,0Z" style="fill:#1e1c1a;"/><rect x="1.514" y="56.756" width="8.962" height="20.915" style="fill:#1e1c1a;"/><path d="M10.476,46.304c0,2.474 -2.006,4.481 -4.481,4.481c-2.476,0 -4.481,-2.007 -4.481,-4.481c0,-2.475 2.005,-4.481 4.481,-4.481c2.475,0 4.481,2.006 4.481,4.481" style="fill:#1e1c1a;"/><path d="M61.261,46.304c0,2.474 -2.006,4.481 -4.481,4.481c-2.476,0 -4.481,-2.007 -4.481,-4.481c0,-2.475 2.005,-4.481 4.481,-4.481c2.475,0 4.481,2.006 4.481,4.481" style="fill:#1e1c1a;"/><path d="M28.399,68.708l0,-23.898l-8.962,0l0,32.86l17.924,0l0,-8.962l-8.962,0Z" style="fill:#1e1c1a;"/><path d="M67.234,44.75l0,1.533c0,5.774 -4.68,10.454 -10.454,10.454c-5.774,0 -10.456,-4.68 -10.456,-10.454l0,-0.001l0,-1.532l-8.962,0l0,1.554l0.001,0c0.013,10.714 8.701,19.393 19.418,19.393c10.714,0 19.4,-8.679 19.414,-19.393l0.001,0l0,-1.554l-8.962,0Z" style="fill:#1e1c1a;"/><path d="M21.231,118.387c-0.644,0.729 -1.393,0.965 -2.144,0.965c-1.418,0 -2.467,-1.159 -2.467,-2.295c0,-1.502 1.049,-2.509 2.467,-2.509c0.751,0 1.5,0.235 2.144,0.964l0,2.875Zm0,-6.306l0,0.408c-0.771,-0.473 -1.694,-0.773 -2.831,-0.773c-2.831,0 -5.171,2.167 -5.171,5.341c0,2.81 2.34,5.063 5.171,5.063c1.137,0 2.06,-0.279 2.831,-0.73l0,0.485c0,1.416 -0.901,2.145 -2.102,2.145c-0.943,0 -1.579,-0.328 -1.915,-0.88l-3.591,0c0.492,2.312 2.633,3.818 5.527,3.818c3.262,0 5.556,-1.887 5.556,-5.148l0,-9.729l-3.475,0Z" style="fill:#1e1c1a;"/><path d="M72.68,111.995l0,6.306c-0.644,0.73 -1.394,0.966 -2.145,0.966c-1.417,0 -2.468,-1.159 -2.468,-2.296c0,-0.005 0.001,-0.009 0.001,-0.014l-0.001,0l0,-4.962l-3.389,0l0,4.976c0,2.81 2.34,5.063 5.17,5.063c1.138,0 2.06,-0.279 2.832,-0.73l0,0.571c0,1.415 -0.901,2.145 -2.103,2.145c-0.918,0 -1.538,-0.317 -1.88,-0.841l-3.619,0c0.505,2.29 2.643,3.78 5.521,3.78c3.26,0 5.556,-1.889 5.556,-5.149l0,-9.815l-3.475,0Z" style="fill:#1e1c1a;"/></g></svg>