<?xml version="1.0" encoding="UTF-8" standalone="no"?>
<!DOCTYPE svg PUBLIC "-//W3C//DTD SVG 1.1//EN" "http://www.w3.org/Graphics/SVG/1.1/DTD/svg11.dtd">
<svg width="100%" height="100%" viewBox="0 0 512 512" version="1.1" xmlns="http://www.w3.org/2000/svg" xmlns:xlink="http://www.w3.org/1999/xlink" xml:space="preserve" xmlns:serif="http://www.serif.com/" style="fill-rule:evenodd;clip-rule:evenodd;stroke-linejoin:round;stroke-miterlimit:1.41421;">
    <path d="M503.955,92.652L419.952,7.972C413.625,1.596 404.575,-1.207 395.789,0.484L243.531,29.833C238.22,30.858 233.334,33.465 229.512,37.321L8.045,260.571C-2.5,271.201 -2.5,288.431 8.045,299.063L211.372,504.028C221.917,514.658 239.012,514.658 249.557,504.028L465.294,286.553C468.752,283.068 471.202,278.705 472.392,273.927L511.052,118.519C513.36,109.238 510.665,99.417 503.955,92.652ZM427.414,133.738C413.06,148.21 389.782,148.21 375.426,133.738C361.069,119.266 361.069,95.802 375.425,81.332C389.782,66.859 413.058,66.86 427.414,81.332C441.769,95.804 441.771,119.266 427.414,133.738Z" style="fill:rgb(206,158,97);fill-rule:nonzero;"/>
    <path d="M64.499,299.063C53.953,288.431 53.953,271.201 64.499,260.571L285.964,37.321C289.786,33.466 294.672,30.858 299.983,29.833L418.843,6.922C412.594,1.294 404.074,-1.112 395.788,0.484L243.531,29.833C238.22,30.858 233.334,33.465 229.512,37.321L8.045,260.571C-2.5,271.201 -2.5,288.431 8.045,299.063L211.372,504.028C221.917,514.658 239.012,514.658 249.557,504.028L258.691,494.819L64.499,299.063Z" style="fill:rgb(65,64,66);fill-opacity:0.1;fill-rule:nonzero;"/>
    <g>
        <path d="M230.016,252.624L195.456,217.784L150.063,217.789L184.625,252.629L230.016,252.624Z" style="fill:white;fill-rule:nonzero;"/>
        <path d="M241.339,241.079L241.345,195.319L206.849,160.546L206.843,206.305L241.339,241.079Z" style="fill:white;fill-rule:nonzero;"/>
        <path d="M257.508,241.075L292.012,206.293L292.017,160.536L257.514,195.319L257.508,241.075Z" style="fill:white;fill-rule:nonzero;"/>
        <path d="M303.399,217.773L268.832,252.62L314.224,252.614L348.792,217.768L303.399,217.773Z" style="fill:white;fill-rule:nonzero;"/>
        <path d="M268.827,268.789L303.831,304.075L348.783,303.624L314.218,268.782L268.827,268.789Z" style="fill:white;fill-rule:nonzero;"/>
        <path d="M257.503,280.333L257.498,326.091L291.997,360.866L291.539,314.643L257.503,280.333Z" style="fill:white;fill-rule:nonzero;"/>
        <path d="M230.012,268.793L184.622,268.797L150.053,303.644L195.905,303.174L230.012,268.793Z" style="fill:white;fill-rule:nonzero;"/>
        <path d="M241.335,280.337L206.387,315.567L206.828,360.876L241.329,326.095L241.335,280.337Z" style="fill:white;fill-rule:nonzero;"/>
    </g>
    <path d="M390.864,118.177C384.425,111.685 384.424,101.16 390.863,94.67L468.595,16.312C475.035,9.821 485.475,9.821 491.915,16.312C498.354,22.804 498.354,33.329 491.915,39.819L414.183,118.177C407.744,124.669 397.302,124.669 390.864,118.177Z" style="fill:rgb(240,211,85);fill-rule:nonzero;"/>
</svg>
